<?xml version="1.0" encoding="UTF-8" standalone="no"?>
<!-- Created with Inkscape (http://www.inkscape.org/) -->

<svg
   xmlns:dc="http://purl.org/dc/elements/1.1/"
   xmlns:cc="http://creativecommons.org/ns#"
   xmlns:rdf="http://www.w3.org/1999/02/22-rdf-syntax-ns#"
   xmlns:svg="http://www.w3.org/2000/svg"
   xmlns="http://www.w3.org/2000/svg"
   xmlns:sodipodi="http://sodipodi.sourceforge.net/DTD/sodipodi-0.dtd"
   xmlns:inkscape="http://www.inkscape.org/namespaces/inkscape"
   version="1.1"
   width="128"
   height="128"
   id="svg2816"
   xml:space="preserve"
   inkscape:version="0.91 r"
   sodipodi:docname="Flattr-Logo.svg"><metadata
     id="metadata35"><rdf:RDF><cc:Work
         rdf:about=""><dc:format>image/svg+xml</dc:format><dc:type
           rdf:resource="http://purl.org/dc/dcmitype/StillImage" /><dc:title>Flattr-Logo</dc:title></cc:Work></rdf:RDF></metadata><sodipodi:namedview
     pagecolor="#ffffff"
     bordercolor="#666666"
     borderopacity="1"
     objecttolerance="10"
     gridtolerance="10"
     guidetolerance="10"
     inkscape:pageopacity="0"
     inkscape:pageshadow="2"
     inkscape:window-width="1318"
     inkscape:window-height="708"
     id="namedview33"
     showgrid="false"
     fit-margin-top="0"
     fit-margin-left="0"
     fit-margin-right="0"
     fit-margin-bottom="0"
     inkscape:zoom="2.0897085"
     inkscape:cx="80.727418"
     inkscape:cy="74.674656"
     inkscape:window-x="42"
     inkscape:window-y="27"
     inkscape:window-maximized="1"
     inkscape:current-layer="svg2816" /><title
     id="title2901">Flattr-Logo</title><defs
     id="defs2820"><linearGradient
       x1="0"
       y1="0"
       x2="1"
       y2="0"
       id="linearGradient2840"
       gradientUnits="userSpaceOnUse"
       gradientTransform="matrix(0,134.75244,134.75244,0,150.74951,247.73047)"
       spreadMethod="pad"><stop
         id="stop2842"
         style="stop-color:#ea5f29;stop-opacity:1"
         offset="0" /><stop
         id="stop2844"
         style="stop-color:#fabd1f;stop-opacity:1"
         offset="1" /></linearGradient><linearGradient
       x1="0"
       y1="0"
       x2="1"
       y2="0"
       id="linearGradient2860"
       gradientUnits="userSpaceOnUse"
       gradientTransform="matrix(0,-134.75195,-134.75195,0,160.87451,372.12109)"
       spreadMethod="pad"><stop
         id="stop2862"
         style="stop-color:#abd33c;stop-opacity:1"
         offset="0" /><stop
         id="stop2864"
         style="stop-color:#6cb02f;stop-opacity:1"
         offset="1" /></linearGradient><clipPath
       id="clipPath2872"><path
         d="m 0,595.276 841.89,0 L 841.89,0 0,0 0,595.276 Z"
         id="path2874"
         inkscape:connector-curvature="0" /></clipPath></defs><g
     id="g4181"
     transform="matrix(0.70680158,0,0,0.70564725,-3.0281868,-6.4920747)"><g
       transform="matrix(1.25,0,0,-1.25,-99.931898,487.30517)"
       id="g2828"><g
         id="g2830"><g
           id="g2836"><g
             id="g2838"><path
               d="m 135.377,382.484 c -34.431,0 -52.004,-19.863 -52.004,-56.949 l 0,0 0,-25.906 0,-51.899 33.728,33.817 0,39.523 c 0,15.364 4.065,25.141 17.702,27.336 l 0,0 c 4.764,0.933 14.679,0.606 20.983,0.606 l 0,0 0,-23.467 c 0,-0.214 0.029,-0.596 0.084,-0.792 l 0,0 c 0.264,-0.95 1.122,-1.646 2.138,-1.648 l 0,0 c 0.575,-0.001 1.113,0.298 1.668,0.846 l 0,0 58.45,58.524 -39.234,0.009 -43.515,0 z"
               id="path2846"
               style="fill:url(#linearGradient2840);stroke:none"
               inkscape:connector-curvature="0" /></g></g></g></g><g
       transform="matrix(1.25,0,0,-1.25,-99.931898,487.30517)"
       id="g2848"><g
         id="g2850"><g
           id="g2856"><g
             id="g2858"><path
               d="m 194.523,338.305 0,-39.522 c 0,-15.364 -4.066,-25.142 -17.702,-27.337 l 0,0 c -4.764,-0.932 -14.679,-0.605 -20.983,-0.605 l 0,0 0,23.466 c 0,0.213 -0.029,0.596 -0.084,0.792 l 0,0 c -0.264,0.951 -1.121,1.646 -2.138,1.648 l 0,0 c -0.575,0.002 -1.113,-0.298 -1.668,-0.845 l 0,0 -58.45,-58.524 39.234,-0.009 43.515,0 c 34.431,0 52.004,19.863 52.004,56.948 l 0,0 0,25.907 0,51.898 -33.728,-33.817 z"
               id="path2866"
               style="fill:url(#linearGradient2860);stroke:none"
               inkscape:connector-curvature="0" /></g></g></g></g></g><g
     id="g2868"
     transform="matrix(1.25,0,0,-1.25,-104.21625,424.71125)"><g
       id="g2870"
       clip-path="url(#clipPath2872)"><g
         id="g2876"
         transform="translate(500.0391,266.1826)" /><g
         id="g2880"
         transform="translate(413.1797,243.7695)" /><g
         id="g2884"
         transform="translate(622.29,276.9707)" /><g
         id="g2888"
         transform="translate(364.2563,361.6123)" /><g
         id="g2892"
         transform="translate(756.458,336.3027)" /><g
         id="g2896"
         transform="translate(547.0293,276.9873)" /></g></g></svg>